<?xml version="1.0" encoding="UTF-8"?>
<svg width="10px" height="17px" viewBox="0 0 10 17" version="1.1" xmlns="http://www.w3.org/2000/svg" xmlns:xlink="http://www.w3.org/1999/xlink">
    <title>Tulip Glass</title>
    <desc>Craft Beer Finder by Jetro Suni</desc>
    <g id="Page" stroke="none" stroke-width="1" fill="none" fill-rule="evenodd">
        <g id="tulip-glass" fill="#5d4037" fill-rule="nonzero">
            <path d="M8.49,0.876 C8.49,0.876 8.574,3.13 8.783,3.795 C8.99,4.462 9.574,6.566 9.574,7.358 C9.574,8.15 9.532,10.88 6.136,12.171 C6.136,12.171 5.636,12.942 5.636,13.692 C5.636,14.442 6.99,14.984 6.99,14.984 C6.99,14.984 11.639,16.748 5.012,16.75 L5.012,16.75 L5,16.75 C-1.626,16.748 3.021,14.985 3.021,14.985 C3.021,14.985 4.375,14.443 4.375,13.693 C4.375,12.943 3.875,12.172 3.875,12.172 C0.653153846,10.9472051 0.450128205,8.42721565 0.437778031,7.49568066 L0.437,7.359 C0.437,6.567 1.021,4.462 1.229,3.796 C1.437,3.13 1.521,0.876 1.521,0.876 L1.521,0.876 Z M4.54027465,14.5610498 C4.54027465,14.9754145 3.55383504,15.2748619 3.55383504,15.2748619 L3.54183186,15.2783754 C3.32636634,15.3420173 0.337700375,16.2489338 4.99561052,16.25 L5.00435296,16.25 C9.83237019,16.248895 6.44539991,15.2743095 6.44539991,15.2743095 C6.44539991,15.2743095 5.45896029,14.974862 5.45896029,14.5604974 C5.45896029,14.1461327 4.54027465,14.1466852 4.54027465,14.5610498 Z M8.05089198,1.3 L1.94910802,1.3 C1.94910802,1.3 1.87556091,3.35890135 1.69344424,3.96725463 C1.51132757,4.57560791 1,6.4984062 1,7.22185335 L9,7.2209399 C9,6.49749276 8.48867243,4.57560791 8.30743132,3.96634119 C8.12443909,3.35890135 8.05089198,1.3 8.05089198,1.3 Z" id="Combined-Shape"></path>
        </g>
    </g>
</svg>
