<?xml version="1.0" standalone="no"?>
<!DOCTYPE svg PUBLIC "-//W3C//DTD SVG 20010904//EN"
 "http://www.w3.org/TR/2001/REC-SVG-20010904/DTD/svg10.dtd">
<svg version="1.0" xmlns="http://www.w3.org/2000/svg"
 width="512.000000pt" height="512.000000pt" viewBox="0 0 512.000000 512.000000"
 preserveAspectRatio="xMidYMid meet">
<metadata>
Created by potrace 1.11, written by Peter Selinger 2001-2013
</metadata>
<g transform="translate(0.000000,512.000000) scale(0.100000,-0.100000)"
fill="#000000" stroke="none">
<path d="M3576 3520 c-16 -10 -51 -24 -78 -30 l-48 -12 0 -1143 c0 -724 -4
-1162 -10 -1196 -14 -73 -53 -127 -119 -161 l-53 -28 -807 0 c-537 0 -819 4
-844 11 -49 13 -115 73 -138 124 -18 38 -19 99 -19 1182 l0 1141 -50 11 c-28
6 -64 18 -81 26 -16 9 -34 13 -39 10 -6 -4 -10 -420 -10 -1148 0 -1205 1
-1221 46 -1309 46 -91 133 -165 232 -199 56 -19 89 -19 913 -17 l854 3 66 32
c82 41 150 111 192 201 l32 67 3 413 3 412 144 0 c79 0 168 5 197 11 162 34
283 155 317 317 15 71 15 613 0 684 -34 162 -155 283 -317 317 -29 6 -118 11
-197 11 l-145 0 0 145 c0 80 -3 145 -7 144 -5 0 -21 -9 -37 -19z m432 -483
c23 -15 54 -46 69 -69 l28 -42 0 -346 0 -346 -28 -42 c-15 -23 -46 -54 -69
-69 -41 -27 -45 -28 -215 -31 l-173 -3 0 491 0 491 173 -3 c170 -3 174 -4 215
-31z"/>
</g>
</svg>
